<?xml version="1.0" standalone="no"?>
<!DOCTYPE svg PUBLIC "-//W3C//DTD SVG 20010904//EN"
 "http://www.w3.org/TR/2001/REC-SVG-20010904/DTD/svg10.dtd">
<svg version="1.0" xmlns="http://www.w3.org/2000/svg"
 width="276.000000pt" height="311.000000pt" viewBox="0 0 276.000000 311.000000"
 preserveAspectRatio="xMidYMid meet">
<metadata>
Created by potrace 1.14, written by Peter Selinger 2001-2017
</metadata>
<g transform="translate(0.000000,311.000000) scale(0.100000,-0.100000)"
fill="#000000" stroke="none">
<path d="M166 2793 c-54 -135 -96 -246 -94 -248 9 -9 849 -335 862 -335 13 1
319 424 316 437 -1 6 -543 222 -931 370 l-56 21 -97 -245z"/>
<path d="M1213 2498 c-103 -141 -155 -217 -153 -225 2 -4 38 -22 82 -40 l79
-32 8 22 c5 12 32 79 60 150 28 70 51 132 51 137 0 10 -17 19 -67 34 -18 6
-28 -2 -60 -46z"/>
<path d="M1449 2483 l-76 -4 -46 -117 c-25 -64 -47 -122 -49 -128 -2 -5 33
-49 78 -97 l80 -87 67 167 c36 93 75 192 86 221 l21 52 -43 -2 c-23 -1 -76 -4
-118 -5z"/>
<path d="M220 2435 c-6 -14 -14 -36 -19 -49 -9 -23 -7 -26 41 -43 28 -10 52
-23 55 -29 2 -7 -5 -30 -17 -53 l-20 -41 -105 0 -105 0 0 -45 0 -45 134 0 134
0 33 75 c18 41 36 75 40 75 5 0 31 -9 59 -20 28 -11 54 -20 59 -20 8 0 46 89
40 94 -2 1 -60 24 -129 51 -69 27 -140 54 -158 62 -31 13 -33 12 -42 -12z"/>
<path d="M1780 1915 c-7 -8 -18 -15 -24 -15 -16 0 -80 -61 -93 -90 -42 -93
-42 -153 -3 -236 24 -50 65 -94 88 -94 6 0 12 -4 12 -10 0 -5 11 -12 25 -16
24 -6 25 -10 25 -79 l0 -73 -36 -7 c-58 -10 -94 -37 -149 -110 -51 -67 -65
-108 -65 -191 0 -66 4 -84 32 -136 18 -33 38 -62 45 -65 7 -3 13 -10 13 -17 0
-16 90 -75 128 -82 l32 -6 0 -79 c0 -71 -2 -79 -19 -79 -10 0 -24 -7 -31 -15
-7 -8 -17 -15 -22 -15 -35 0 -99 -108 -106 -181 -4 -48 15 -139 30 -139 4 0 8
-6 8 -13 0 -17 56 -77 71 -77 7 0 21 -8 31 -17 29 -26 152 -25 203 2 57 30 79
54 110 118 33 72 32 144 -6 224 -25 54 -97 113 -138 113 -19 0 -21 6 -21 80 0
75 1 80 21 80 28 0 119 42 119 55 0 5 12 19 27 29 20 15 29 17 42 8 9 -7 26
-16 39 -22 12 -5 22 -14 22 -20 0 -5 7 -10 15 -10 17 0 17 -4 15 -73 -2 -52
27 -147 47 -154 7 -3 13 -11 13 -19 0 -8 7 -14 15 -14 8 0 15 -7 15 -15 0 -8
5 -15 12 -15 6 0 20 -8 30 -17 28 -25 188 -25 216 0 10 9 24 17 30 17 7 0 12
7 12 15 0 8 7 15 15 15 8 0 15 7 15 15 0 8 4 15 8 15 21 0 45 81 44 147 -1
103 -39 171 -121 217 -45 25 -193 27 -220 2 -10 -9 -22 -16 -28 -16 -6 0 -13
-7 -17 -15 -7 -19 -50 -19 -66 0 -7 8 -17 15 -22 15 -5 0 -16 6 -24 14 -7 8
-18 16 -24 18 -6 2 -6 17 1 43 11 39 8 133 -6 168 -4 10 -3 17 5 17 7 0 29 14
50 30 41 33 77 39 86 15 4 -8 12 -15 19 -15 7 0 18 -6 24 -14 17 -20 112 -29
176 -16 30 6 55 16 55 21 0 5 5 9 12 9 17 0 68 60 86 100 29 68 9 250 -28 250
-6 0 -10 7 -10 15 0 8 -7 15 -15 15 -8 0 -15 7 -15 15 0 8 -5 15 -12 15 -6 0
-20 8 -30 17 -15 14 -38 17 -108 17 -70 0 -93 -3 -108 -17 -10 -9 -24 -17 -30
-17 -7 0 -12 -7 -12 -15 0 -8 -7 -15 -15 -15 -8 0 -15 -6 -15 -14 0 -8 -6 -16
-13 -19 -23 -9 -50 -104 -45 -164 4 -48 2 -56 -14 -61 -10 -2 -18 -9 -18 -16
0 -6 -19 -20 -42 -30 -38 -18 -42 -18 -53 -3 -7 10 -17 17 -24 17 -6 0 -11 7
-11 15 0 8 -6 15 -13 15 -7 0 -19 6 -25 13 -7 6 -32 17 -55 22 l-42 11 -3 72
c-2 54 0 72 10 72 17 0 87 37 107 57 68 69 88 206 41 296 -23 46 -90 107 -117
107 -7 0 -13 5 -13 10 0 17 -155 13 -170 -5z m149 -129 c39 -21 65 -74 57
-117 -14 -73 -79 -110 -156 -89 -48 13 -70 48 -70 114 0 86 88 134 169 92z
m616 -362 c45 -52 42 -118 -8 -170 -18 -19 -32 -24 -80 -24 -42 0 -59 4 -63
15 -4 8 -12 15 -18 15 -7 0 -18 19 -25 42 -15 48 1 128 25 128 8 0 14 4 14 9
0 14 29 20 83 17 38 -3 52 -9 72 -32z m-614 -276 c73 -39 99 -78 99 -150 0
-80 -29 -124 -99 -154 -65 -27 -132 -11 -186 46 -28 29 -30 37 -30 105 0 68 2
76 30 105 16 17 41 37 55 45 32 17 101 18 131 3z m607 -415 c50 -58 52 -114 7
-167 -21 -24 -35 -30 -78 -34 -40 -3 -57 0 -69 12 -9 9 -21 16 -26 16 -5 0
-14 19 -21 42 -10 32 -10 50 -1 85 7 23 18 43 25 43 7 0 15 7 19 15 4 11 21
15 63 15 50 0 60 -3 81 -27z m-596 -345 c49 -44 59 -86 33 -142 -30 -63 -108
-84 -170 -46 -36 22 -45 43 -45 108 0 35 6 49 29 73 39 38 114 42 153 7z"/>
</g>
</svg>
